<?xml version="1.0" encoding="UTF-8"?>
<svg version="1.1" xmlns="http://www.w3.org/2000/svg" width="637" height="287">
<path d="M0 0 C0.92100998 -0.0071553 1.84201996 -0.01431061 2.79093933 -0.02168274 C3.79930847 -0.02437164 4.80767761 -0.02706055 5.84660339 -0.02983093 C7.44214302 -0.03968773 7.44214302 -0.03968773 9.06991577 -0.04974365 C12.59598356 -0.06948224 16.12200877 -0.08113981 19.64811707 -0.09111023 C21.45312966 -0.09722352 21.45312966 -0.09722352 23.29460716 -0.10346031 C29.66219792 -0.12432223 36.0297671 -0.13862414 42.39738464 -0.147995 C48.97826767 -0.15906691 55.55881328 -0.19347594 62.13957691 -0.23316669 C67.19676346 -0.25929294 72.25386907 -0.26768325 77.31111717 -0.27127647 C79.73721791 -0.27615178 82.16331481 -0.28779245 84.58934975 -0.30631447 C87.98396812 -0.33062279 91.37770615 -0.32975576 94.77238464 -0.32279968 C95.77468109 -0.33560974 96.77697754 -0.3484198 97.80964661 -0.36161804 C103.5153409 -0.31899233 107.08520196 0.14946005 111.50358582 4.14717102 C113.4622852 7.27226261 113.75604564 9.68243195 113.76428223 13.34002686 C113.77136703 14.39006897 113.77845184 15.44011108 113.78575134 16.52197266 C113.78327393 17.66857864 113.78079651 18.81518463 113.77824402 19.99653625 C113.78335495 21.20828522 113.78846588 22.42003418 113.79373169 23.66850281 C113.80525034 26.98882606 113.80770125 30.30889968 113.80516839 33.62922549 C113.80409816 36.40259054 113.80898336 39.1759326 113.81377381 41.94929272 C113.82486637 48.49289011 113.82530783 55.0364301 113.81925964 61.58003235 C113.8132191 68.32724392 113.82553335 75.074247 113.84682971 81.82142299 C113.86445108 87.61772567 113.87044624 93.41396202 113.86719197 99.21029049 C113.86537981 102.67068181 113.86800837 106.1309244 113.88190651 109.59129143 C113.89682646 113.45041448 113.88751 117.3092724 113.87590027 121.16841125 C113.88354401 122.31299301 113.89118774 123.45757477 113.89906311 124.63684082 C113.8920488 125.68970276 113.88503448 126.7425647 113.87780762 127.82733154 C113.87797536 128.73932029 113.8781431 129.65130903 113.87831593 130.5909338 C113.41778001 133.73249896 112.36082321 135.58860672 110.50358582 138.14717102 C107.49422536 140.15341132 106.76317053 140.41358049 103.36476135 140.55409241 C102.53690943 140.59179371 101.7090575 140.62949501 100.85611916 140.66833878 C99.9616728 140.69841396 99.06722645 140.72848915 98.14567566 140.75947571 C96.74247102 140.81566133 96.74247102 140.81566133 95.31091881 140.87298203 C85.28581479 141.2458204 75.26119715 141.32976596 65.23014832 141.35029602 C64.27624584 141.3531234 63.32234337 141.35595078 62.33953476 141.35886383 C57.31934604 141.3736516 52.29918469 141.38301654 47.27897644 141.3874054 C42.12018093 141.39295039 36.96164134 141.41716096 31.80292702 141.44537735 C27.80001565 141.46399773 23.79716718 141.46920838 19.79421616 141.47074127 C17.8908837 141.473755 15.98755201 141.48173997 14.08426285 141.49492645 C11.43428238 141.51202152 8.78494701 141.51010172 6.13493347 141.50361633 C5.36087662 141.51283112 4.58681976 141.5220459 3.78930664 141.53153992 C-2.10468197 141.48645958 -6.83650342 140.51147903 -11.39146423 136.46272278 C-13.00216549 133.08731006 -13.06819587 129.77134222 -13.1756134 126.0983429 C-13.20870039 125.30431816 -13.24178738 124.51029343 -13.275877 123.69220734 C-13.61453566 114.77365597 -13.64139643 105.85213712 -13.62922668 96.92842102 C-13.62990383 95.1331328 -13.63087722 93.33784467 -13.63212585 91.54255676 C-13.63358662 87.80463272 -13.63150321 84.06673284 -13.62678528 80.32881165 C-13.62224598 76.5553581 -13.62220187 72.78195264 -13.62678528 69.00849915 C-13.64064951 57.49163408 -13.61510718 45.97602711 -13.51528931 34.45954895 C-13.49729307 32.25484309 -13.48443482 30.05015816 -13.47236633 27.84541321 C-13.44305759 24.16360117 -13.380034 20.48445581 -13.30110168 16.80342102 C-13.29587494 15.76834412 -13.29064819 14.73326721 -13.28526306 13.66682434 C-13.14388751 9.01289124 -13.0204557 6.83549668 -10.13362122 3.0436554 C-6.66254166 0.54751153 -4.16417821 0.02222721 0 0 Z M37.75358582 19.64717102 C35.38770419 19.69553381 33.02181878 19.74371197 30.65592957 19.79170227 C24.93843645 19.90807069 19.22099368 20.02669036 13.50358582 20.14717102 C12.41810751 33.83012334 12.1767826 47.52371108 11.94596863 61.24336243 C11.87920624 65.11122714 11.80105633 68.97875236 11.72233582 72.84638977 C11.49932924 84.89836537 11.43224152 96.91311887 11.91764832 108.95967102 C11.958284 109.98036682 11.99891968 111.00106262 12.04078674 112.0526886 C11.85998062 116.43818749 11.85998062 116.43818749 13.50358582 120.14717102 C20.26119281 121.28370269 26.94185427 121.29243685 33.78092957 121.27998352 C34.94685135 121.28094025 36.11277313 121.28189697 37.31402588 121.28288269 C39.77068638 121.28356078 42.22734871 121.28173244 44.68400574 121.27754211 C48.4253394 121.27219353 52.16655276 121.27749728 55.90788269 121.28388977 C58.30306524 121.28322883 60.69824772 121.28194733 63.09342957 121.27998352 C64.20306564 121.28200775 65.31270172 121.28403198 66.45596313 121.28611755 C75.52904289 121.28366609 75.52904289 121.28366609 84.50358582 120.14717102 C89.34540698 112.57461159 87.77012393 100.35211142 87.87858582 91.70967102 C87.91596863 90.55273743 87.95335144 89.39580383 87.99186707 88.20381165 C88.25903475 81.7688983 88.25903475 81.7688983 85.15592957 76.45185852 C84.28065613 76.02131165 83.40538269 75.59076477 82.50358582 75.14717102 C79.69108582 73.70967102 79.69108582 73.70967102 77.50358582 72.14717102 C77.50358582 70.49717102 77.50358582 68.84717102 77.50358582 67.14717102 C80.80358582 65.49717102 84.10358582 63.84717102 87.50358582 62.14717102 C87.55376204 58.09447584 87.58966425 54.04190583 87.6134491 49.9889679 C87.62338501 48.6158889 87.63693843 47.24283036 87.65446472 45.86982727 C87.76283631 37.14910193 87.5868448 28.66035998 85.50358582 20.14717102 C84.32266439 18.73835806 84.32266439 18.73835806 80.97135925 19.03193665 C79.35187778 19.0332228 77.7323948 19.04095341 76.11296082 19.05342102 C75.22944946 19.05700623 74.34593811 19.06059143 73.43565369 19.06428528 C61.53990258 19.1334958 49.64658768 19.39649097 37.75358582 19.64717102 Z " fill="#F18181" transform="translate(72.49641418457031,86.85282897949219)"/>
<path d="M0 0 C6.249375 -0.0928125 6.249375 -0.0928125 12.625 -0.1875 C13.92775879 -0.21481201 15.23051758 -0.24212402 16.57275391 -0.27026367 C27.28941983 -0.3474157 27.28941983 -0.3474157 32 3 C35.21753841 6.64654353 35.50428139 10.14693802 35.37109375 14.83984375 C34.82621278 18.01162456 33.26944593 19.80147426 31 22 C31.94875 22.721875 32.8975 23.44375 33.875 24.1875 C37.37614782 27.15191526 38.70117206 29.48330846 39.25 34.10546875 C39.54309301 39.5734853 38.73490514 42.76037795 35 47 C30.04722711 50.59076034 25.94104538 51.12716199 19.921875 51.09765625 C18.87612305 51.09515869 17.83037109 51.09266113 16.75292969 51.09008789 C14.77147949 51.07643188 14.77147949 51.07643188 12.75 51.0625 C8.5425 51.041875 4.335 51.02125 0 51 C0 34.17 0 17.34 0 0 Z M12 10 C12 12.97 12 15.94 12 19 C18.39825263 19.47326369 18.39825263 19.47326369 24 17 C24.41666667 14.5 24.41666667 14.5 24 12 C22.18806994 9.75675164 22.18806994 9.75675164 19.6171875 9.8046875 C18.71226562 9.82789063 17.80734375 9.85109375 16.875 9.875 C15.96492187 9.89304688 15.05484375 9.91109375 14.1171875 9.9296875 C13.41851562 9.95289063 12.71984375 9.97609375 12 10 Z M12 28 C12 32.29 12 36.58 12 41 C19.2725411 41.37752624 19.2725411 41.37752624 26 39 C28.24621573 36.25394157 28.24621573 36.25394157 27.9375 33.5 C27.16970863 30.88997228 27.16970863 30.88997228 25.0625 29.1875 C20.59855766 27.45658358 16.77291591 27.80908336 12 28 Z " fill="#5F556F" transform="translate(209,125)"/>
<path d="M0 0 C0.639375 0.33 1.27875 0.66 1.9375 1 C2.2675 0.67 2.5975 0.34 2.9375 0 C4.79037502 -0.07226502 6.64583878 -0.0838122 8.5 -0.0625 C9.51191406 -0.05347656 10.52382813 -0.04445312 11.56640625 -0.03515625 C12.34886719 -0.02355469 13.13132812 -0.01195312 13.9375 0 C14.84107847 10.10617765 15.01721836 20.10691897 14.6875 30.25 C14.64798218 31.8740979 14.64798218 31.8740979 14.60766602 33.53100586 C14.56697998 34.55718018 14.52629395 35.58335449 14.484375 36.640625 C14.43555176 38.01009277 14.43555176 38.01009277 14.38574219 39.40722656 C13.66080735 43.60047711 11.69758207 46.26103132 8.6875 49.1875 C2.87310202 53.01971685 -3.48354891 53.9351379 -10.28125 52.546875 C-12.21815541 52.06946874 -14.14185919 51.53912725 -16.0625 51 C-16.0625 47.7 -16.0625 44.4 -16.0625 41 C-14.7425 41.33 -13.4225 41.66 -12.0625 42 C-10.21088271 42.11555812 -8.35517681 42.17487975 -6.5 42.1875 C-5.07494141 42.20876953 -5.07494141 42.20876953 -3.62109375 42.23046875 C-0.82024757 42.18358888 -0.82024757 42.18358888 1.9375 40 C1.9375 38.68 1.9375 37.36 1.9375 36 C0.9475 36.66 -0.0425 37.32 -1.0625 38 C-8.42440902 38.92562014 -14.13852797 38.56639511 -20.0625 34 C-24.55566948 29.50683052 -25.80822809 24.79699099 -26.375 18.5625 C-25.87319716 12.84194762 -24.41104737 8.64012518 -20.75 4.1875 C-14.24468838 -1.10752108 -8.02003464 -2.61878682 0 0 Z M-14.4375 13.6875 C-15.40398377 17.26348996 -15.06807859 20.45132773 -14.0625 24 C-12.09294247 26.74331228 -10.78640951 27.74013505 -7.625 28.875 C-4.49546231 29.02766038 -2.80139296 28.51359874 -0.0625 27 C2.60411095 24.23815294 3.75875053 21.84311357 3.9375 18 C2.42464673 13.16820153 2.42464673 13.16820153 -0.9375 9.5625 C-6.51708148 8.08555196 -10.68891207 9.08696027 -14.4375 13.6875 Z " fill="#5F556E" transform="translate(340.0625,138)"/>
<path d="M0 0 C3.82143592 2.15488679 6.12379923 4.84991144 8.6875 8.375 C5.91469294 11.45589673 3.62423644 13.06275452 -0.3125 14.375 C-0.6425 13.385 -0.9725 12.395 -1.3125 11.375 C-5.48256403 8.92202116 -8.6834597 9.46734504 -13.3125 10.375 C-13.3125 12.025 -13.3125 13.675 -13.3125 15.375 C-12.755625 15.61734375 -12.19875 15.8596875 -11.625 16.109375 C-9.18054575 17.18295288 -6.745461 18.27563408 -4.3125 19.375 C-3.58546875 19.69855469 -2.8584375 20.02210938 -2.109375 20.35546875 C2.2965072 22.41547092 5.48984378 24.59595174 8.6875 28.375 C10.04343231 32.44279694 10.21825585 36.12168259 9.6875 40.375 C7.04377301 45.47361634 4.19837307 48.26554446 -1 50.5625 C-8.66810133 52.44335504 -14.16931019 51.68919566 -21.13671875 47.875 C-24.2862456 45.70369244 -25.66490053 43.81998072 -27.3125 40.375 C-27.3125 39.385 -27.3125 38.395 -27.3125 37.375 C-24.3425 36.055 -21.3725 34.735 -18.3125 33.375 C-17.9825 34.15875 -17.6525 34.9425 -17.3125 35.75 C-14.8443389 38.98946145 -13.13799906 39.45860148 -9.25390625 40.23828125 C-6.76443767 40.41359594 -5.30080029 39.86622522 -3.3125 38.375 C-3.3125 36.065 -3.3125 33.755 -3.3125 31.375 C-3.869375 31.20484375 -4.42625 31.0346875 -5 30.859375 C-13.26295944 28.23532707 -20.44352681 25.89977675 -25.3125 18.375 C-26.53037995 14.18853769 -26.47775006 11.93879432 -25.25 7.75 C-19.90575134 -1.55933638 -9.81416065 -4.49660212 0 0 Z " fill="#5F556E" transform="translate(387.3125,125.625)"/>
<path d="M0 0 C0.92425781 0.45826172 0.92425781 0.45826172 1.8671875 0.92578125 C2.6096875 0.61640625 3.3521875 0.30703125 4.1171875 -0.01171875 C6.8671875 -1.07421875 6.8671875 -1.07421875 14.8671875 -0.07421875 C14.8671875 12.46578125 14.8671875 25.00578125 14.8671875 37.92578125 C10.9071875 37.92578125 6.9471875 37.92578125 2.8671875 37.92578125 C2.5371875 37.26578125 2.2071875 36.60578125 1.8671875 35.92578125 C1.2071875 36.58578125 0.5471875 37.24578125 -0.1328125 37.92578125 C-6.48988206 38.65855723 -12.83140242 38.83872679 -18.1328125 34.92578125 C-23.34659649 29.71199726 -25.27887322 26.12289402 -25.3828125 18.61328125 C-25.31553116 11.87767196 -24.16569246 8.34326012 -19.8203125 3.17578125 C-14.62198856 -1.17630391 -6.34249288 -3.19447902 0 0 Z M-13.1328125 11.92578125 C-14.87746698 15.41509021 -14.69731802 19.11865102 -14.1328125 22.92578125 C-12.13468032 25.98542116 -10.79771735 27.55653502 -7.16015625 28.36328125 C-3.82971992 28.56248492 -1.53513127 28.17336203 1.3046875 26.42578125 C3.44970435 22.99375429 4.07582572 19.96212841 3.8671875 15.92578125 C2.61527813 12.89484277 1.63252916 11.4442385 -1.0703125 9.61328125 C-5.90410084 8.00201847 -8.96008821 9.51487388 -13.1328125 11.92578125 Z " fill="#5E556E" transform="translate(455.1328125,138.07421875)"/>
<path d="M0 0 C3.63 0 7.26 0 11 0 C11.33 7.92 11.66 15.84 12 24 C13.19625 22.35 14.3925 20.7 15.625 19 C18.65553622 15.55731086 20.15132413 14.15170862 24.71484375 13.3359375 C28.19151852 13.37123369 31.55249009 13.55864027 35 14 C33.57701102 15.66015381 32.15344741 17.31975301 30.7265625 18.9765625 C29.58425215 20.31528821 28.45376463 21.6642017 27.3359375 23.0234375 C26.81257812 23.65507812 26.28921875 24.28671875 25.75 24.9375 C25.27046875 25.52402344 24.7909375 26.11054688 24.296875 26.71484375 C23 28 23 28 21 28 C23.90876387 33.81752774 27.69927382 38.15262226 32.171875 42.86328125 C34 45 34 45 34 47 C34.66 47 35.32 47 36 47 C36.66 48.65 37.32 50.3 38 52 C33.49186567 52.68980726 29.4842539 52.93212019 25 52 C22.06481479 49.43907193 20.07318919 46.82658048 17.90234375 43.6015625 C16.04048694 40.63855889 16.04048694 40.63855889 12 39 C11.67 43.29 11.34 47.58 11 52 C7.37 52 3.74 52 0 52 C-0.94232856 41.91858018 -1.15546454 31.9573188 -1.13037109 21.83886719 C-1.12492289 19.21283423 -1.13039449 16.58696586 -1.13671875 13.9609375 C-1.1360594 12.29166629 -1.13478122 10.62239518 -1.1328125 8.953125 C-1.13483673 8.16786438 -1.13686096 7.38260376 -1.13894653 6.57354736 C-1.11500758 1.11500758 -1.11500758 1.11500758 0 0 Z " fill="#5E556E" transform="translate(517,124)"/>
<path d="M0 0 C4.25662554 3.08107639 7.4684332 7.12763904 8.75390625 12.26953125 C9.51629025 19.0371554 8.97792365 24.7439271 4.75390625 30.26953125 C-1.10173019 35.61945364 -6.3431889 36.63747092 -14.16796875 36.54296875 C-19.41464581 36.07689338 -23.20888512 34.46462355 -26.80859375 30.5859375 C-31.10783987 24.90653567 -32.0686845 19.31368865 -31.24609375 12.26953125 C-29.10632873 5.42228318 -25.12055839 1.52963562 -18.99609375 -2.04296875 C-12.26297845 -3.72624757 -6.08121192 -3.47673328 0 0 Z M-19.24609375 12.26953125 C-19.57609375 12.59953125 -19.90609375 12.92953125 -20.24609375 13.26953125 C-20.37542768 17.82393317 -20.06932585 21.27681019 -17.12109375 24.83203125 C-13.44491378 26.67012124 -11.30810153 26.92235393 -7.24609375 26.26953125 C-4.33241151 24.2857476 -2.61050606 22.85504444 -1.80078125 19.33203125 C-1.59596036 15.72718359 -2.08922408 13.57673436 -3.74609375 10.33203125 C-6.65128221 7.93525077 -8.56708514 7.26516622 -12.27734375 6.98828125 C-15.68102243 7.47452106 -17.21253114 9.68136066 -19.24609375 12.26953125 Z " fill="#605670" transform="translate(301.24609375,139.73046875)"/>
<path d="M0 0 C2.58180333 1.76318276 4.66967354 3.25146908 6.5625 5.75 C6.625 7.875 6.625 7.875 5.5625 9.75 C3.15244611 11.11786842 1.52898768 11.91663581 -1.25 11.4375 C-1.971875 11.210625 -2.69375 10.98375 -3.4375 10.75 C-7.57986944 9.84986487 -10.42375741 9.29705118 -14.375 11.0625 C-16.52730875 12.58873758 -16.52730875 12.58873758 -17.4375 14.75 C-17.82075336 18.8124856 -17.83783293 21.0679513 -15.75 24.625 C-13.14305342 27.02057253 -11.95399667 27.66423179 -8.4375 27.75 C-5.81375345 26.93391223 -5.81375345 26.93391223 -3.4375 25.75 C0.73837745 24.35804085 2.69724776 25.92676781 6.5625 27.75 C6.3041116 31.23824341 5.29783264 31.99214247 2.625 34.4375 C-3.1097588 38.76782808 -8.40405279 38.32651207 -15.4375 37.75 C-21.10800317 36.25586742 -24.35351016 33.26427606 -27.52734375 28.43359375 C-30.19173117 23.50504879 -30.09909182 18.19140689 -29.4375 12.75 C-27.05561167 6.78045414 -22.96188213 2.39629655 -17.12109375 -0.33203125 C-11.51015611 -2.25134762 -5.53327569 -2.01210025 0 0 Z " fill="#5F556F" transform="translate(504.4375,138.25)"/>
<path d="M0 0 C3.96 0 7.92 0 12 0 C12.33 2.64 12.66 5.28 13 8 C15.97 8.495 15.97 8.495 19 9 C19 11.97 19 14.94 19 18 C16.69 18 14.38 18 12 18 C12 24.27 12 30.54 12 37 C15.465 36.505 15.465 36.505 19 36 C20 37 20 37 20.09765625 39.06640625 C20.08605469 39.89011719 20.07445312 40.71382812 20.0625 41.5625 C20.05347656 42.38878906 20.04445313 43.21507812 20.03515625 44.06640625 C20.02355469 44.70449219 20.01195312 45.34257812 20 46 C15.80149326 48.09925337 10.56103843 47.54124323 6 47 C2.87739753 44.85703752 1.46316424 43.56763281 0.390625 39.9375 C-0.17512703 35.68304474 -0.10405137 31.47368391 -0.0625 27.1875 C-0.05798828 26.30384766 -0.05347656 25.42019531 -0.04882812 24.50976562 C-0.03709866 22.33981441 -0.01916495 20.16989828 0 18 C-1.65 18 -3.3 18 -5 18 C-5 15.03 -5 12.06 -5 9 C-3.35 9 -1.7 9 0 9 C0 6.03 0 3.06 0 0 Z " fill="#5F556E" transform="translate(406,129)"/>
<path d="M0 0 C3.63 0 7.26 0 11 0 C11 17.16 11 34.32 11 52 C7.37 52 3.74 52 0 52 C-1.62754644 50.37245356 -1.12737077 48.55861677 -1.12939453 46.3125 C-1.13254669 45.31476563 -1.13569885 44.31703125 -1.13894653 43.2890625 C-1.1369223 42.20367187 -1.13489807 41.11828125 -1.1328125 40 C-1.13376923 38.89398438 -1.13472595 37.78796875 -1.13571167 36.6484375 C-1.13639367 34.30468692 -1.13453804 31.96093447 -1.13037109 29.6171875 C-1.12502314 26.01558212 -1.13031547 22.41410147 -1.13671875 18.8125 C-1.13605797 16.54166639 -1.13477682 14.27083286 -1.1328125 12 C-1.13483673 10.91460937 -1.13686096 9.82921875 -1.13894653 8.7109375 C-1.13579437 7.71320313 -1.13264221 6.71546875 -1.12939453 5.6875 C-1.12859894 4.80449219 -1.12780334 3.92148438 -1.12698364 3.01171875 C-1 1 -1 1 0 0 Z " fill="#5D556D" transform="translate(254,124)"/>
<path d="M0 0 C3 0.25 3 0.25 5 2.25 C5.45295333 5.87644504 5.32404802 9.53601738 5.3125 13.1875 C5.32861328 14.20263672 5.34472656 15.21777344 5.36132812 16.26367188 C5.36197266 17.23755859 5.36261719 18.21144531 5.36328125 19.21484375 C5.36775269 20.55470337 5.36775269 20.55470337 5.37231445 21.92163086 C4.92698636 24.70661056 4.24959979 25.59474803 2 27.25 C-0.5625 27.5625 -0.5625 27.5625 -3 27.25 C-5.56988681 24.68011319 -5.25706775 23.66089947 -5.265625 20.09375 C-5.26820312 19.07152344 -5.27078125 18.04929688 -5.2734375 16.99609375 C-5.26183594 15.38927734 -5.26183594 15.38927734 -5.25 13.75 C-5.25773437 12.67878906 -5.26546875 11.60757813 -5.2734375 10.50390625 C-5.27085938 9.48167969 -5.26828125 8.45945313 -5.265625 7.40625 C-5.26336914 6.46587891 -5.26111328 5.52550781 -5.25878906 4.55664062 C-4.84130422 0.83551157 -3.62134415 0.30177868 0 0 Z " fill="#F18181" transform="translate(122,162.75)"/>
<path d="M0 0 C2.375 0.9375 2.375 0.9375 4.375 3.9375 C4.82134955 6.90178615 4.7452657 9.88055339 4.75 12.875 C4.77449219 13.68646484 4.79898438 14.49792969 4.82421875 15.33398438 C4.85373304 21.33030385 4.85373304 21.33030385 2.3515625 24.50390625 C1.69929688 24.97699219 1.04703125 25.45007813 0.375 25.9375 C-1.64545442 25.33566251 -3.64611039 24.66443904 -5.625 23.9375 C-7.3157922 20.55591559 -6.89389059 16.77802188 -6.9375 13.0625 C-6.96650391 12.24652344 -6.99550781 11.43054688 -7.02539062 10.58984375 C-7.0891019 4.58138032 -7.0891019 4.58138032 -4.76953125 1.36328125 C-2.625 -0.0625 -2.625 -0.0625 0 0 Z " fill="#F38081" transform="translate(123.625,121.0625)"/>
<path d="M0 0 C2.64 0.33 5.28 0.66 8 1 C8 3.97 8 6.94 8 10 C5.69 10 3.38 10 1 10 C1 16.27 1 22.54 1 29 C4.465 28.505 4.465 28.505 8 28 C9 29 9 29 9.09765625 31.06640625 C9.08605469 31.89011719 9.07445312 32.71382812 9.0625 33.5625 C9.05347656 34.38878906 9.04445313 35.21507812 9.03515625 36.06640625 C9.02355469 36.70449219 9.01195312 37.34257812 9 38 C8.34 38 7.68 38 7 38 C7 35.36 7 32.72 7 30 C5.02 30.33 3.04 30.66 1 31 C-1.56830179 27.12176115 -1.40321226 22.98788483 -1.4375 18.5 C-1.47037109 17.74074219 -1.50324219 16.98148438 -1.53710938 16.19921875 C-1.5581368 14.01619023 -1.51134204 12.12394982 -1 10 C1.52734375 7.65625 1.52734375 7.65625 4 6 C4 5.01 4 4.02 4 3 C3.34 2.67 2.68 2.34 2 2 C1.67 2.66 1.34 3.32 1 4 C0.67 2.68 0.34 1.36 0 0 Z " fill="#544E61" transform="translate(417,137)"/>
<path d="M0 0 C2 2 2 2 2.18286133 4.53442383 C2.07394715 7.96139665 1.95776403 11.38684311 1.8125 14.8125 C1.78091797 16.00166016 1.74933594 17.19082031 1.71679688 18.41601562 C1.65008789 20.13788086 1.65008789 20.13788086 1.58203125 21.89453125 C1.54311768 22.94487549 1.5042041 23.99521973 1.46411133 25.07739258 C0.76468725 29.48181426 -1.09170243 32.11693292 -4.25 35.1875 C-10.38479311 39.23088637 -16.81620059 39.71213607 -23.9375 38.5 C-24.618125 38.335 -25.29875 38.17 -26 38 C-25.67 37.34 -25.34 36.68 -25 36 C-21.04 36.33 -17.08 36.66 -13 37 C-12.67 36.34 -12.34 35.68 -12 35 C-11.071875 34.87625 -10.14375 34.7525 -9.1875 34.625 C-5.43575322 33.88936338 -4.27139562 33.0285275 -2 30 C-1.0571583 26.34850263 -0.81856839 22.80297657 -0.68359375 19.04296875 C-0.64169922 17.93115234 -0.59980469 16.81933594 -0.55664062 15.67382812 C-0.51732422 14.52333984 -0.47800781 13.37285156 -0.4375 12.1875 C-0.39431641 11.01767578 -0.35113281 9.84785156 -0.30664062 8.64257812 C-0.20081721 5.76182969 -0.09873175 2.88099877 0 0 Z " fill="#544D60" transform="translate(353,152)"/>
<path d="M0 0 C4.22031761 4.00389106 6.12082394 6.47142425 6.3125 12.3125 C6.25242941 16.93042698 5.10443184 19.47605034 2 23 C-0.5 24.9375 -0.5 24.9375 -3 26 C-5.3125 25.6875 -5.3125 25.6875 -7 25 C-5.68 24.34 -4.36 23.68 -3 23 C-3 22.34 -3 21.68 -3 21 C-2.34 20.67 -1.68 20.34 -1 20 C-0.32558869 18.3364521 0.3400321 16.66933058 1 15 C1.5775 14.360625 2.155 13.72125 2.75 13.0625 C4.352208 10.96137283 4.352208 10.96137283 3.3125 8.0625 C2.879375 7.051875 2.44625 6.04125 2 5 C1.62875 4.05125 1.2575 3.1025 0.875 2.125 C0.58625 1.42375 0.2975 0.7225 0 0 Z " fill="#5E566E" transform="translate(242,149)"/>
<path d="M0 0 C2.97 0.99 5.94 1.98 9 3 C7.7697343 7.9210628 5.96296389 9.00755788 2 12 C-0.88415883 13.44207941 -3.41721528 13.09394887 -6.625 13.0625 C-7.81351562 13.05347656 -9.00203125 13.04445312 -10.2265625 13.03515625 C-11.14179688 13.02355469 -12.05703125 13.01195312 -13 13 C-13 12.67 -13 12.34 -13 12 C-11.89591797 11.96132812 -11.89591797 11.96132812 -10.76953125 11.921875 C-4.90696024 11.5811179 -1.31983563 11.31983563 3 7 C3.99 6.67 4.98 6.34 6 6 C6 5.34 6 4.68 6 4 C4.02 3.34 2.04 2.68 0 2 C-0.33 2.66 -0.66 3.32 -1 4 C-1 1 -1 1 0 0 Z " fill="#544E60" transform="translate(502,163)"/>
<path d="M0 0 C0.33 0.66 0.66 1.32 1 2 C3.39763185 4.39763185 4.33273498 4.34280586 7.625 4.625 C8.44226563 4.69976562 9.25953125 4.77453125 10.1015625 4.8515625 C10.72804688 4.90054688 11.35453125 4.94953125 12 5 C12 5.33 12 5.66 12 6 C4.19623593 6.46822584 -1.37032303 6.37808857 -8 2 C-8.33 1.01 -8.66 0.02 -9 -1 C-5.39416086 -2.33549598 -3.37916196 -1.73524533 0 0 Z " fill="#5B5267" transform="translate(284,170)"/>
<path d="M0 0 C1.26328125 0.03609375 2.5265625 0.0721875 3.828125 0.109375 C5.27445313 0.17898437 5.27445313 0.17898437 6.75 0.25 C5.81409496 1.3555189 4.87620142 2.45935453 3.9375 3.5625 C3.15439453 4.48482422 3.15439453 4.48482422 2.35546875 5.42578125 C0.87827531 7.10424679 -0.65039131 8.68882034 -2.25 10.25 C-2.91 9.59 -3.57 8.93 -4.25 8.25 C-2.72005208 7.01302083 -1.19010417 5.77604167 0.33984375 4.5390625 C1.88266437 3.2833609 1.88266437 3.2833609 2.75 1.25 C-3.7152248 2.21260014 -7.54385826 3.66452857 -12.25 8.25 C-11.21221668 0.98551674 -6.66839125 -0.24697745 0 0 Z " fill="#524C5D" transform="translate(545.25,137.75)"/>
<path d="M0 0 C3.02093215 3.02093215 2.46676834 6.56372072 2.625 10.625 C2.66367188 11.42679688 2.70234375 12.22859375 2.7421875 13.0546875 C2.83653931 15.03607556 2.91936215 17.01800645 3 19 C4.65 19.33 6.3 19.66 8 20 C8 19.34 8 18.68 8 18 C8.66 18 9.32 18 10 18 C9.67 18.99 9.34 19.98 9 21 C6.50290113 22.11938915 5.39054977 22.14506134 2.8125 21.1875 C1 20 1 20 0 18 C-0.08308638 16.62451844 -0.10736016 15.24514204 -0.09765625 13.8671875 C-0.09443359 13.06152344 -0.09121094 12.25585938 -0.08789062 11.42578125 C-0.07951172 10.58402344 -0.07113281 9.74226562 -0.0625 8.875 C-0.05798828 8.02550781 -0.05347656 7.17601562 -0.04882812 6.30078125 C-0.03702874 4.20049091 -0.01909306 2.1002367 0 0 Z " fill="#D98586" transform="translate(117,125)"/>
<path d="M0 0 C3.0625 0.1875 3.0625 0.1875 5.0625 2.1875 C5.28955078 4.43408203 5.28955078 4.43408203 5.2578125 7.1953125 C5.24814453 8.67451172 5.24814453 8.67451172 5.23828125 10.18359375 C5.22152344 11.21613281 5.20476562 12.24867188 5.1875 13.3125 C5.17847656 14.35277344 5.16945313 15.39304688 5.16015625 16.46484375 C5.13653747 19.03929092 5.10360149 21.61328212 5.0625 24.1875 C4.7325 24.1875 4.4025 24.1875 4.0625 24.1875 C4.0625 17.2575 4.0625 10.3275 4.0625 3.1875 C-0.54358929 4.41476546 -0.54358929 4.41476546 -4.9375 6.1875 C-3.87127483 0.24710265 -3.87127483 0.24710265 0 0 Z " fill="#DA8788" transform="translate(121.9375,162.8125)"/>
<path d="M0 0 C0.598125 0.226875 1.19625 0.45375 1.8125 0.6875 C0.843125 1.30625 -0.12625 1.925 -1.125 2.5625 C-4.21585362 4.34428846 -4.21585362 4.34428846 -5.1875 6.6875 C-5.44535684 11.24297083 -5.18601462 14.5655636 -3.1875 18.6875 C-4.8375 18.3575 -6.4875 18.0275 -8.1875 17.6875 C-8.17589844 17.06101563 -8.16429687 16.43453125 -8.15234375 15.7890625 C-8.14332031 14.97179687 -8.13429688 14.15453125 -8.125 13.3125 C-8.10759766 12.09433594 -8.10759766 12.09433594 -8.08984375 10.8515625 C-8.04283666 8.63812858 -8.04283666 8.63812858 -9.1875 6.6875 C-8.5275 6.6875 -7.8675 6.6875 -7.1875 6.6875 C-6.919375 6.089375 -6.65125 5.49125 -6.375 4.875 C-3.46022727 -0.49431818 -3.46022727 -0.49431818 0 0 Z " fill="#544C5F" transform="translate(492.1875,146.3125)"/>
<path d="M0 0 C2.375 1.3125 2.375 1.3125 3.1875 3.4375 C3.249375 4.05625 3.31125 4.675 3.375 5.3125 C-2.04038462 6.54326923 -2.04038462 6.54326923 -5 5.375 C-5.53625 5.024375 -6.0725 4.67375 -6.625 4.3125 C-6.3125 2.375 -6.3125 2.375 -5.625 0.3125 C-2.625 -0.6875 -2.625 -0.6875 0 0 Z " fill="#625874" transform="translate(505.625,141.6875)"/>
<path d="M0 0 C2 1.375 2 1.375 4 3 C4 3.66 4 4.32 4 5 C4.66 5 5.32 5 6 5 C6.66 6.65 7.32 8.3 8 10 C3.71 10 -0.58 10 -5 10 C-5 9.67 -5 9.34 -5 9 C-2.69 8.34 -0.38 7.68 2 7 C2 4.3534665 1.01860366 2.4191837 0 0 Z " fill="#5A5368" transform="translate(547,166)"/>
<path d="M0 0 C1.32 0.66 2.64 1.32 4 2 C3.40300665 6.72448188 2.876255 10.78149941 -0.8125 14.0625 C-4.00012998 16.00007901 -5.3726741 16.53343028 -9 16 C-9.33 15.34 -9.66 14.68 -10 14 C-8.906875 13.773125 -7.81375 13.54625 -6.6875 13.3125 C-2.97370266 12.32503116 -2.97370266 12.32503116 -1.0625 9.8125 C0.22708006 6.39890571 0.21292279 3.61968736 0 0 Z " fill="#564E61" transform="translate(458,152)"/>
<path d="M0 0 C2.06723714 3.10085571 2.24497423 3.72931681 2.1953125 7.23046875 C2.18564453 8.43413086 2.18564453 8.43413086 2.17578125 9.66210938 C2.15902344 10.49548828 2.14226562 11.32886719 2.125 12.1875 C2.11597656 13.03248047 2.10695312 13.87746094 2.09765625 14.74804688 C2.07410703 16.83215243 2.03823647 18.91611217 2 21 C1.67 21 1.34 21 1 21 C0.67 15.39 0.34 9.78 0 4 C-3.60482214 1.70744585 -3.60482214 1.70744585 -6.25 2.375 C-7.11625 2.684375 -7.11625 2.684375 -8 3 C-7.67 2.01 -7.34 1.02 -7 0 C-4.27584084 -1.36207958 -2.87220643 -0.86166193 0 0 Z " fill="#D88283" transform="translate(126,122)"/>
<path d="M0 0 C0.66 1.32 1.32 2.64 2 4 C1.34 4.66 0.68 5.32 0 6 C-0.45811675 7.97235333 -0.45811675 7.97235333 -0.625 10.125 C-0.74875 11.40375 -0.8725 12.6825 -1 14 C-0.34 14.33 0.32 14.66 1 15 C0.67 15.66 0.34 16.32 0 17 C0.66 17 1.32 17 2 17 C2.33 18.65 2.66 20.3 3 22 C-0.27541349 18.93590351 -1.86540392 17.05024269 -2.16796875 12.44140625 C-2.17763672 11.01634766 -2.17763672 11.01634766 -2.1875 9.5625 C-2.20167969 8.61503906 -2.21585937 7.66757813 -2.23046875 6.69140625 C-1.99614518 3.95498356 -1.39701383 2.33571877 0 0 Z " fill="#575163" transform="translate(477,147)"/>
<path d="M0 0 C0.33 0.66 0.66 1.32 1 2 C0.23841295 3.68873649 -0.52400866 5.37710801 -1.29296875 7.0625 C-2.83467612 11.28728926 -2.35071047 15.77902977 -1 20 C-1.66 20.33 -2.32 20.66 -3 21 C-4.71455586 14.81087154 -4.92876457 9.26398217 -2 3.4375 C-1.34 2.303125 -0.68 1.16875 0 0 Z " fill="#575063" transform="translate(274,144)"/>
<path d="M0 0 C-3.22791555 2.1519437 -4.28400809 2.20086443 -8 2 C-8.33 2.66 -8.66 3.32 -9 4 C-10.8125 4.75 -10.8125 4.75 -13 5 C-15.25 4.0625 -15.25 4.0625 -17 3 C-11.17521449 -0.03901852 -6.51791392 -0.3540919 0 0 Z " fill="#595266" transform="translate(295,137)"/>
<path d="M0 0 C0.66 1.32 1.32 2.64 2 4 C1.34 4 0.68 4 0 4 C-0.33 4.66 -0.66 5.32 -1 6 C-4.91765889 6.81309902 -8.17907588 7.37553268 -12 6 C-11.67 5.34 -11.34 4.68 -11 4 C-9.9275 4.0825 -8.855 4.165 -7.75 4.25 C-3.95990735 4.36237217 -3.95990735 4.36237217 -1.5625 2 C-1.046875 1.34 -0.53125 0.68 0 0 Z " fill="#574E60" transform="translate(298,161)"/>
<path d="M0 0 C0 0.99 0 1.98 0 3 C-3.75 4.125 -3.75 4.125 -6 3 C-8.00800456 3.28112064 -10.01014051 3.61067967 -12 4 C-8.35616205 0.00912986 -5.26350451 -0.11696677 0 0 Z " fill="#5B5367" transform="translate(334,137)"/>
<path d="M0 0 C5.8961027 5.59373846 5.8961027 5.59373846 6.09765625 10.26171875 C6.08605469 11.06222656 6.07445312 11.86273438 6.0625 12.6875 C6.05347656 13.49574219 6.04445312 14.30398437 6.03515625 15.13671875 C6.02355469 15.75160156 6.01195312 16.36648437 6 17 C4.40821441 13.96405409 3.65611438 11.36258621 3 8 C2.36096883 6.32254318 1.69658363 4.65438613 1 3 C0.67 2.01 0.34 1.02 0 0 Z " fill="#534D5F" transform="translate(242,149)"/>
<path d="M0 0 C0.88751953 0.59748047 0.88751953 0.59748047 1.79296875 1.20703125 C5.80986636 3.90025298 9.81567505 6.57039197 14 9 C13.01 9.495 13.01 9.495 12 10 C7.32914691 8.35205833 3.11502645 5.89378307 0 2 C0 1.34 0 0.68 0 0 Z " fill="#575163" transform="translate(363,144)"/>
<path d="M0 0 C0 1.66666667 0 3.33333333 0 5 C0.99 4.67 1.98 4.34 3 4 C3.33 5.32 3.66 6.64 4 8 C2 8 0 8 -2 8 C-2.6875 5.6875 -2.6875 5.6875 -3 3 C-1.5625 1.1875 -1.5625 1.1875 0 0 Z " fill="#584C66" transform="translate(460,137)"/>
<path d="M0 0 C0.99 0 1.98 0 3 0 C3.66 0.66 4.32 1.32 5 2 C7.06874034 2.6425235 7.06874034 2.6425235 9 3 C7.02 3.99 5.04 4.98 3 6 C2.67 5.01 2.34 4.02 2 3 C1.01 2.67 0.02 2.34 -1 2 C-0.67 1.34 -0.34 0.68 0 0 Z " fill="#575064" transform="translate(384,134)"/>
<path d="M0 0 C0.33 0.66 0.66 1.32 1 2 C-0.093125 2.12375 -1.18625 2.2475 -2.3125 2.375 C-6.07381802 2.75464801 -6.07381802 2.75464801 -9 5 C-11.1875 4.625 -11.1875 4.625 -13 4 C-4.738041 -0.59225513 -4.738041 -0.59225513 0 0 Z " fill="#EE909C" transform="translate(76,87)"/>
<path d="M0 0 C1.4540625 0.0309375 1.4540625 0.0309375 2.9375 0.0625 C3.2675 1.0525 3.5975 2.0425 3.9375 3.0625 C2.9375 4.0625 2.9375 4.0625 0.5 4.3125 C-0.345625 4.23 -1.19125 4.1475 -2.0625 4.0625 C-2.7225 3.0725 -3.3825 2.0825 -4.0625 1.0625 C-3.0625 0.0625 -3.0625 0.0625 0 0 Z " fill="#E6838B" transform="translate(121.0625,185.9375)"/>
<path d="M0 0 C3.6875 0.0625 3.6875 0.0625 7 1 C7.33 1.66 7.66 2.32 8 3 C6.88625 2.979375 5.7725 2.95875 4.625 2.9375 C1.16784079 2.73619282 1.16784079 2.73619282 -1 4 C-1.65555119 6.52733235 -1.65555119 6.52733235 -2 9 C-2.66 7.68 -3.32 6.36 -4 5 C-2.4375 2.4375 -2.4375 2.4375 0 0 Z " fill="#585264" transform="translate(375,132)"/>
<path d="M0 0 C0.33 0 0.66 0 1 0 C1.12117188 0.61488281 1.24234375 1.22976562 1.3671875 1.86328125 C1.53476562 2.67152344 1.70234375 3.47976562 1.875 4.3125 C2.03742188 5.11300781 2.19984375 5.91351563 2.3671875 6.73828125 C2.94478999 9.25301118 2.94478999 9.25301118 5 12 C3.68 12 2.36 12 1 12 C-0.3271261 8.0186217 -0.06915913 4.14954773 0 0 Z " fill="#554D5E" transform="translate(280,153)"/>
<path d="M0 0 C1.4552777 2.9105554 0.63516661 4.95849052 0.0625 8.125 C-0.13214844 9.22070312 -0.32679688 10.31640625 -0.52734375 11.4453125 C-0.68332031 12.28835937 -0.83929688 13.13140625 -1 14 C-2.42425426 11.68624865 -3.03742624 10.42016246 -2.79296875 7.67578125 C-2.59316406 6.89589844 -2.39335937 6.11601562 -2.1875 5.3125 C-1.99542969 4.52488281 -1.80335938 3.73726562 -1.60546875 2.92578125 C-1 1 -1 1 0 0 Z " fill="#554F61" transform="translate(364,130)"/>
<path d="M0 0 C1.4540625 0.0309375 1.4540625 0.0309375 2.9375 0.0625 C2.9375 1.7125 2.9375 3.3625 2.9375 5.0625 C0.44388429 3.85868552 -1.74393083 2.60821278 -4.0625 1.0625 C-3.0625 0.0625 -3.0625 0.0625 0 0 Z " fill="#574E62" transform="translate(456.0625,145.9375)"/>
<path d="M0 0 C1.7074998 1.28062485 3.37373596 2.61767557 5 4 C5 4.66 5 5.32 5 6 C3.35 5.67 1.7 5.34 0 5 C0 3.33333333 0 1.66666667 0 0 Z " fill="#595266" transform="translate(541,159)"/>
<path d="M0 0 C0.99 0.33 1.98 0.66 3 1 C3 2.65 3 4.3 3 6 C3.66 6 4.32 6 5 6 C5.33 6.99 5.66 7.98 6 9 C3.5067466 8.00269864 2.22532561 7.34925469 0.75 5.0625 C0 3 0 3 0 0 Z " fill="#54505E" transform="translate(360,163)"/>
<path d="M0 0 C0 2.31 0 4.62 0 7 C-0.598125 6.38125 -1.19625 5.7625 -1.8125 5.125 C-4.00811144 2.86323046 -4.00811144 2.86323046 -7 1 C-4.53721199 -0.231394 -2.7204945 -0.07159196 0 0 Z " fill="#544D5F" transform="translate(299,146)"/>
<path d="M0 0 C0.99 0.33 1.98 0.66 3 1 C-0.465 3.97 -0.465 3.97 -4 7 C-3.04065919 3.16263678 -2.76390737 2.40339772 0 0 Z " fill="#575164" transform="translate(537,139)"/>
<path d="M0 0 C2 1.375 2 1.375 4 3 C4 3.66 4 4.32 4 5 C4.66 5 5.32 5 6 5 C6.33 5.99 6.66 6.98 7 8 C3.64379729 6.61122646 1.92701272 5.08322035 0 2 C0 1.34 0 0.68 0 0 Z " fill="#534C5D" transform="translate(547,166)"/>
<path d="M0 0 C1.65 0.33 3.3 0.66 5 1 C3.02579865 3.52259061 2.03254358 3.9929808 -1.1875 4.6875 C-2.5796875 4.8421875 -2.5796875 4.8421875 -4 5 C-3.34 4.360625 -2.68 3.72125 -2 3.0625 C0.11602431 1.35917681 0.11602431 1.35917681 0 0 Z " fill="#575163" transform="translate(239,170)"/>
<path d="M0 0 C4.8 3.44615385 4.8 3.44615385 5.8125 6.25 C5.874375 6.8275 5.93625 7.405 6 8 C2.83884224 6.63016497 2.0072908 6.0109362 0 3 C0 2.01 0 1.02 0 0 Z " fill="#585263" transform="translate(316,164)"/>
</svg>
